<svg data-v-a7a4d779="" data-noselect="" viewBox="1.1368683772161603e-13 5.684341886080802e-14 799.9999999999998 599.9999999999999" width="1600" height="1200" preserveAspectRatio="none" version="1.1" xmlns="http://www.w3.org/2000/svg" xmlns:xlink="http://www.w3.org/1999/xlink"><defs data-v-a7a4d779=""></defs><g data-v-a7a4d779="" id="background" data-noselect=""><rect fill="#ffffff" x="1.1368683772161603e-13" y="5.684341886080802e-14" width="799.9999999999998" height="599.9999999999999" data-noselect=""></rect><!----></g><g data-v-a7a4d779="" id="shape_oMCvrCRSPg" transform="translate(160.00000000000006,135.26699133517602) rotate(0,224.05033480424544,164.73300866482398) scale(1,1)" filter="" style="opacity: 1;"><g data-v-a7a4d779=""><svg version="1.1" id="图层_1" xmlns="http://www.w3.org/2000/svg" xmlns:xlink="http://www.w3.org/1999/xlink" x="0px" y="0px" width="448.1006696084909" height="329.46601732964797" viewBox="0 0 200 147.05" style="enable-background:new 0 0 200 147.05;" xml:space="preserve" class="style-removed" preserveAspectRatio="none" data-parent="shape_oMCvrCRSPg">

<g>
	<path d="M195.06,63.93H200c-9.21-15.73-25.8-26.58-45.1-27.67c-1.09-0.09-2.18-0.12-3.3-0.12
		c-2.94,0-5.81,0.21-8.62,0.67c2.39,3.42,4.3,7.17,5.72,11.14c2.57-0.39,5.18-0.58,7.84-0.58c0.45,0,0.88,0,1.33,0.03
		C172.51,47.74,185.65,54.03,195.06,63.93z" fill="#4A86CC" stroke-width="0"></path>
	<g>
		<g>
			<g>
				<path d="M199.75,130.24c-22.61,4.83-49.41,6.49-75.34,7.35c-29.25,0.97-55.04,0.44-80.26-3.79
					c21.68,9.1,49.74,14.13,80.14,13.12C152.97,145.97,179.2,139.81,199.75,130.24z" fill="#022E77" stroke-width="0"></path>
			</g>
		</g>
	</g>
	<path d="M47.83,43.25c1.54-0.18,3.09-0.27,4.66-0.27c1.88,0,3.72,0.12,5.54,0.39c0.97-2,2.06-3.9,3.27-5.75
		c8.78-13.38,23.94-22.21,41.13-22.21c16.86,0,31.75,8.47,40.55,21.4c2.39,3.42,4.3,7.17,5.72,11.14c2.57-0.39,5.18-0.58,7.84-0.58
		c0.45,0,0.88,0,1.33,0.03c-0.61-3.87-1.6-7.6-2.97-11.14C146.91,15.07,126.43,0,102.43,0c-23.94,0-44.4,15.01-52.39,36.16
		C49.13,38.46,48.41,40.83,47.83,43.25z" fill="#15BBED" stroke-width="0"></path>
	<path d="M56.05,43.58c12.11,0,23.06,4.69,31.33,12.28h1.7C80.06,43.78,65.7,35.92,49.45,35.92
		C22.15,35.92,0,58.07,0,85.37c0,24.73,18.19,45.24,41.91,48.88C23.18,128.25,9.62,110.7,9.62,90
		C9.62,64.37,30.38,43.58,56.05,43.58z" fill="#90C543" stroke-width="0"></path>
</g>
</svg></g></g><g data-v-a7a4d779="" id="shape_MLEWHAWoum" transform="translate(125.3311723393009,-66.56960596763258) rotate(0,312.1689788117595,393.8472429681692) scale(1,1)" filter="" style="opacity: 1;"><g data-v-a7a4d779=""><svg xmlns="http://www.w3.org/2000/svg" version="1.1" xmlns:xlink="http://www.w3.org/1999/xlink" width="843.6762175491587" height="787.6944859363384" viewBox="0 0 422.88 394.82" data-parent="shape_MLEWHAWoum"><g data-width="202.28959999999998" transform="translate(55.32520000000001, 0)"><path d="M16.11-24.13L16.11-29.46L28.91-29.46L25.18-38.86L32.71-38.86L36.45-29.46L40.84-29.46L38.04-37.49L44.69-37.49L49.31-24.13L46.17-24.13L42.71-24.13L38.64-24.13L48.26-0.11L40.73-0.11L31.11-24.13L16.11-24.13ZM7.64-39.52L14.84-39.52L11.10-31.77L13.80-31.77L13.80-0.11L6.98-0.11L6.98-26.28L1.21-26.28L7.64-39.52Z" transform="translate(0 216.91) " fill="#022e77" stroke="#022e77" stroke-width="0.092" data-glyph-w="50.572399999999995" data-glyph-h="54.97" data-glyph-ascender="47.219229999999996" data-glyph-descender="-7.75077"></path><path d="M16.77 0.05L4.67 0.05L4.67-15.17L1.04-15.17L4.18-34.14L1.37-34.14L1.37-39.58L24.30-39.58L24.30-34.14L11.76-34.14L11.38-31.61L22.81-31.61L22.81-5.99Q22.81-4.73 22.32-3.63Q21.82-2.53 21.00-1.70Q20.17-0.88 19.07-0.41Q17.98 0.05 16.77 0.05L16.77 0.05ZM11.71-26.17L11.71-5.39L14.07-5.39Q14.79-5.39 15.28-5.88Q15.78-6.38 15.78-7.09L15.78-7.09L15.78-26.17L11.71-26.17ZM49.47-22.70L49.47-5.99Q49.47-4.73 49.01-3.63Q48.54-2.53 47.71-1.70Q46.89-0.88 45.79-0.41Q44.69 0.05 43.43 0.05L43.43 0.05L36.12 0.05L38.20-4.67L40.13-4.67Q40.84-4.67 41.34-5.17Q41.83-5.66 41.83-6.43L41.83-6.43L41.83-17.26L24.79-17.26L27.59-31.28L35.51-31.28L33.86-22.70L39.96-22.70L39.96-32.49Q39.96-33.20 39.47-33.70Q38.97-34.19 38.26-34.19L38.26-34.19L26.11-34.19L26.11-39.63L41.56-39.63Q42.82-39.63 43.92-39.17Q45.02-38.70 45.84-37.87Q46.67-37.05 47.14-35.95Q47.60-34.85 47.60-33.59L47.60-33.59L47.60-22.70L49.47-22.70ZM38.75-12.70L38.75-7.26L24.79-7.26L24.79-12.70L38.75-12.70Z" transform="translate(50.572399999999995 216.91) " fill="#022e77" stroke="#022e77" stroke-width="0.092" data-glyph-w="50.572399999999995" data-glyph-h="54.97" data-glyph-ascender="47.219229999999996" data-glyph-descender="-7.75077"></path><path d="M15.28-33.37L9.23-4.95L1.81-4.95L7.92-33.37L15.28-33.37ZM48.70-4.95L41.34-4.95L35.24-33.37L42.60-33.37L48.70-4.95ZM24.13-0.38L14.95-0.38L16.82-5.50L20.17-5.50Q20.67-5.50 21.03-5.85Q21.38-6.21 21.38-6.76L21.38-6.76L21.38-39.19L29.02-39.19L29.02-5.28Q29.02-3.24 27.59-1.81Q26.17-0.38 24.13-0.38L24.13-0.38Z" transform="translate(101.14479999999999 216.91) " fill="#022e77" stroke="#022e77" stroke-width="0.092" data-glyph-w="50.572399999999995" data-glyph-h="54.97" data-glyph-ascender="47.219229999999996" data-glyph-descender="-7.75077"></path><path d="M29.02-38.04L29.02-32.60L1.15-32.60L1.15-38.04L11.05-38.04L10.33-39.58L18.03-39.58L18.74-38.04L29.02-38.04ZM28.03-31.55L28.03-23.80Q28.03-22.04 26.74-20.78Q25.45-19.51 23.69-19.51L23.69-19.51L2.75-19.51L2.75-31.55L28.03-31.55ZM21.00-25.62L21.00-26.77L9.78-26.77L9.78-24.35L19.68-24.35Q20.23-24.35 20.61-24.71Q21.00-25.07 21.00-25.62L21.00-25.62ZM6.87-4.07L12.15-4.07Q12.86-4.07 13.36-4.56Q13.85-5.06 13.85-5.83L13.85-5.83L13.85-6.16L1.15-6.16L1.15-11.60L16.33-11.60L17.48-13.74L2.91-13.74L2.91-18.58L20.12-18.58L21.71-18.58L27.76-18.58L23.97-11.60L29.02-11.60L29.02-6.16L21.49-6.16L21.49-5.99Q21.49-4.73 21.03-3.63Q20.56-2.53 19.73-1.70Q18.91-0.88 17.81-0.41Q16.71 0.05 15.45 0.05L15.45 0.05L5.33 0.05L6.87-4.07ZM36.39-39.63L49.42-39.63L45.63-22.21L49.42-22.21L43.81-2.25L37.43-2.25L41.67-17.70L37.71-17.70L41.28-34.19L36.39-34.19L36.39 0.05L30.01 0.05L30.01-39.63L33.53-39.63L36.39-39.63Z" transform="translate(151.7172 216.91) " fill="#022e77" stroke="#022e77" stroke-width="0.092" data-glyph-w="50.572399999999995" data-glyph-h="54.97" data-glyph-ascender="47.219229999999996" data-glyph-descender="-7.75077"></path></g></svg></g></g><g data-v-a7a4d779="" id="shape_otjKTv6ZZU" transform="translate(214.1197296859397,270.01866938756825) rotate(0,131.67477856187207,136.06432750984644) scale(1,1)" filter="" style="opacity: 1;"><g data-v-a7a4d779=""><svg xmlns="http://www.w3.org/2000/svg" version="1.1" xmlns:xlink="http://www.w3.org/1999/xlink" width="339.16230841694323" height="272.12865501969287" viewBox="0 0 170 136.400390625" data-parent="shape_otjKTv6ZZU"><g data-width="93.97021484375" transform="translate(19, 0)"><path d="M11.83-5.33L7.83-5.33L7.83-6.93L13.59-6.94L13.59-1.89Q12.26-0.83 10.85-0.30Q9.44 0.23 7.96 0.23L7.96 0.23Q5.96 0.23 4.32-0.63Q2.68-1.48 1.85-3.11Q1.01-4.73 1.01-6.74L1.01-6.74Q1.01-8.72 1.84-10.44Q2.67-12.16 4.23-13.00Q5.79-13.83 7.82-13.83L7.82-13.83Q9.30-13.83 10.49-13.35Q11.68-12.88 12.36-12.02Q13.03-11.17 13.39-9.80L13.39-9.80L11.76-9.35Q11.46-10.39 11.00-10.98Q10.55-11.58 9.70-11.94Q8.86-12.29 7.83-12.29L7.83-12.29Q6.60-12.29 5.70-11.92Q4.80-11.54 4.24-10.93Q3.69-10.32 3.39-9.58L3.39-9.58Q2.87-8.32 2.87-6.85L2.87-6.85Q2.87-5.03 3.49-3.80Q4.12-2.58 5.32-1.99Q6.51-1.39 7.86-1.39L7.86-1.39Q9.03-1.39 10.14-1.84Q11.25-2.29 11.83-2.80L11.83-2.80L11.83-5.33Z" transform="translate(0 74.2001953125) " fill="#022e77" stroke="#022e77" stroke-width="0.032" data-glyph-w="14.77880859375" data-glyph-h="21.2265625" data-glyph-ascender="17.2001953125" data-glyph-descender="-4.0263671875"></path><path d="M7.10 0L5.30 0L5.30-5.76L0.06-13.60L2.25-13.60L4.93-9.50Q5.67-8.35 6.31-7.20L6.31-7.20Q6.92-8.27 7.79-9.60L7.79-9.60L10.43-13.60L12.52-13.60L7.10-5.76L7.10 0Z" transform="translate(14.77880859375 74.2001953125) " fill="#022e77" stroke="#022e77" stroke-width="0.032" data-glyph-w="12.6728515625" data-glyph-h="21.2265625" data-glyph-ascender="17.2001953125" data-glyph-descender="-4.0263671875"></path><path d="M6.37 0L1.47 0L1.47-13.60L6.15-13.60Q7.74-13.60 8.57-13.41L8.57-13.41Q9.74-13.14 10.57-12.43L10.57-12.43Q11.64-11.52 12.18-10.11Q12.71-8.69 12.71-6.87L12.71-6.87Q12.71-5.33 12.35-4.13Q11.99-2.93 11.42-2.15Q10.85-1.36 10.18-0.91Q9.51-0.46 8.56-0.23Q7.61 0 6.37 0L6.37 0ZM3.27-12.00L3.27-1.60L6.17-1.60Q7.51-1.60 8.28-1.86Q9.05-2.11 9.50-2.56L9.50-2.56Q10.14-3.20 10.50-4.28Q10.85-5.36 10.85-6.90L10.85-6.90Q10.85-9.04 10.15-10.18Q9.45-11.33 8.45-11.72L8.45-11.72Q7.73-12.00 6.12-12.00L6.12-12.00L3.27-12.00Z" transform="translate(27.45166015625 74.2001953125) " fill="#022e77" stroke="#022e77" stroke-width="0.032" data-glyph-w="13.72119140625" data-glyph-h="21.2265625" data-glyph-ascender="17.2001953125" data-glyph-descender="-4.0263671875"></path><path d="M6.58 0L1.39 0L1.39-13.60L6.49-13.60Q8.05-13.60 8.99-13.19Q9.94-12.77 10.47-11.92Q11.00-11.06 11.00-10.12L11.00-10.12Q11.00-9.25 10.53-8.48Q10.06-7.71 9.10-7.24L9.10-7.24Q10.33-6.87 11.00-6.00Q11.66-5.13 11.66-3.94L11.66-3.94Q11.66-2.99 11.26-2.17Q10.85-1.35 10.26-0.90Q9.67-0.45 8.77-0.23Q7.88 0 6.58 0L6.58 0ZM3.19-12.00L3.19-7.89L6.13-7.89Q7.33-7.89 7.85-8.04L7.85-8.04Q8.54-8.25 8.88-8.72Q9.23-9.19 9.23-9.91L9.23-9.91Q9.23-10.59 8.91-11.10Q8.58-11.62 7.98-11.81Q7.38-12.00 5.91-12.00L5.91-12.00L3.19-12.00ZM3.19-6.28L3.19-1.60L6.58-1.60Q7.45-1.60 7.80-1.67L7.80-1.67Q8.42-1.78 8.84-2.04Q9.26-2.30 9.53-2.80Q9.80-3.29 9.80-3.94L9.80-3.94Q9.80-4.70 9.41-5.26Q9.02-5.83 8.33-6.05Q7.64-6.28 6.34-6.28L6.34-6.28L3.19-6.28Z" transform="translate(41.1728515625 74.2001953125) " fill="#022e77" stroke="#022e77" stroke-width="0.032" data-glyph-w="12.6728515625" data-glyph-h="21.2265625" data-glyph-ascender="17.2001953125" data-glyph-descender="-4.0263671875"></path><path d="M9.89 0L1.39 0L1.39-13.60L3.19-13.60L3.19-1.60L9.89-1.60L9.89 0Z" transform="translate(53.845703125 74.2001953125) " fill="#022e77" stroke="#022e77" stroke-width="0.032" data-glyph-w="10.56689453125" data-glyph-h="21.2265625" data-glyph-ascender="17.2001953125" data-glyph-descender="-4.0263671875"></path><path d="M0.92-6.62L0.92-6.62Q0.92-10.01 2.74-11.93Q4.56-13.84 7.43-13.84L7.43-13.84Q9.31-13.84 10.83-12.94Q12.34-12.04 13.13-10.43Q13.93-8.82 13.93-6.78L13.93-6.78Q13.93-4.71 13.09-3.08Q12.26-1.45 10.72-0.61Q9.19 0.23 7.42 0.23L7.42 0.23Q5.50 0.23 3.99-0.70Q2.48-1.62 1.70-3.23Q0.92-4.83 0.92-6.62ZM2.77-6.60L2.77-6.60Q2.77-4.14 4.10-2.72Q5.42-1.31 7.41-1.31L7.41-1.31Q9.44-1.31 10.76-2.74Q12.07-4.17 12.07-6.79L12.07-6.79Q12.07-8.45 11.51-9.69Q10.95-10.93 9.87-11.61Q8.79-12.29 7.44-12.29L7.44-12.29Q5.53-12.29 4.15-10.98Q2.77-9.67 2.77-6.60Z" transform="translate(64.41259765625 74.2001953125) " fill="#022e77" stroke="#022e77" stroke-width="0.032" data-glyph-w="14.77880859375" data-glyph-h="21.2265625" data-glyph-ascender="17.2001953125" data-glyph-descender="-4.0263671875"></path><path d="M11.83-5.33L7.83-5.33L7.83-6.93L13.59-6.94L13.59-1.89Q12.26-0.83 10.85-0.30Q9.44 0.23 7.96 0.23L7.96 0.23Q5.96 0.23 4.32-0.63Q2.68-1.48 1.85-3.11Q1.01-4.73 1.01-6.74L1.01-6.74Q1.01-8.72 1.84-10.44Q2.67-12.16 4.23-13.00Q5.79-13.83 7.82-13.83L7.82-13.83Q9.30-13.83 10.49-13.35Q11.68-12.88 12.36-12.02Q13.03-11.17 13.39-9.80L13.39-9.80L11.76-9.35Q11.46-10.39 11.00-10.98Q10.55-11.58 9.70-11.94Q8.86-12.29 7.83-12.29L7.83-12.29Q6.60-12.29 5.70-11.92Q4.80-11.54 4.24-10.93Q3.69-10.32 3.39-9.58L3.39-9.58Q2.87-8.32 2.87-6.85L2.87-6.85Q2.87-5.03 3.49-3.80Q4.12-2.58 5.32-1.99Q6.51-1.39 7.86-1.39L7.86-1.39Q9.03-1.39 10.14-1.84Q11.25-2.29 11.83-2.80L11.83-2.80L11.83-5.33Z" transform="translate(79.19140625 74.2001953125) " fill="#022e77" stroke="#022e77" stroke-width="0.032" data-glyph-w="14.77880859375" data-glyph-h="21.2265625" data-glyph-ascender="17.2001953125" data-glyph-descender="-4.0263671875"></path></g></svg></g></g></svg>