<svg class="svg-canvas" viewBox="0 0 800 600" width="1600" height="1200" preserveAspectRatio="none" version="1.1" xmlns="http://www.w3.org/2000/svg" xmlns:xlink="http://www.w3.org/1999/xlink">
        <!--滤镜-->
        <defs></defs>

        <!-- 背景 -->
        <g id="background">
            <rect x="0" y="0" fill="#ffffff" width="800" height="600"></rect>
            
          </g>

        <!--元素-->
        
                <g id="shape_oMCvrCRSPg" ref="shape_oMCvrCRSPg" key="shape_oMCvrCRSPg" transform="translate(161,135.26699133518) rotate(0,224.05033480425,164.73300866482) scale(1,1)" style="[object Object]" filter="">
                  <!--普通元素-->
                  <svg version="1.1" id="图层_1" xmlns="http://www.w3.org/2000/svg" xmlns:xlink="http://www.w3.org/1999/xlink" x="0px" y="0px" width="448.10066960849" height="329.46601732965" viewBox="0 0 200 147.05" style="enable-background:new 0 0 200 147.05;" xml:space="preserve" class="style-removed" preserveAspectRatio="none" data-parent="shape_oMCvrCRSPg">

<g>
	<path d="M195.06,63.93H200c-9.21-15.73-25.8-26.58-45.1-27.67c-1.09-0.09-2.18-0.12-3.3-0.12
		c-2.94,0-5.81,0.21-8.62,0.67c2.39,3.42,4.3,7.17,5.72,11.14c2.57-0.39,5.18-0.58,7.84-0.58c0.45,0,0.88,0,1.33,0.03
		C172.51,47.74,185.65,54.03,195.06,63.93z" fill="#4A86CC" stroke-width="0"></path>
	<g>
		<g>
			<g>
				<path d="M199.75,130.24c-22.61,4.83-49.41,6.49-75.34,7.35c-29.25,0.97-55.04,0.44-80.26-3.79
					c21.68,9.1,49.74,14.13,80.14,13.12C152.97,145.97,179.2,139.81,199.75,130.24z" fill="#022E77" stroke-width="0"></path>
			</g>
		</g>
	</g>
	<path d="M47.83,43.25c1.54-0.18,3.09-0.27,4.66-0.27c1.88,0,3.72,0.12,5.54,0.39c0.97-2,2.06-3.9,3.27-5.75
		c8.78-13.38,23.94-22.21,41.13-22.21c16.86,0,31.75,8.47,40.55,21.4c2.39,3.42,4.3,7.17,5.72,11.14c2.57-0.39,5.18-0.58,7.84-0.58
		c0.45,0,0.88,0,1.33,0.03c-0.61-3.87-1.6-7.6-2.97-11.14C146.91,15.07,126.43,0,102.43,0c-23.94,0-44.4,15.01-52.39,36.16
		C49.13,38.46,48.41,40.83,47.83,43.25z" fill="#15BBED" stroke-width="0"></path>
	<path d="M56.05,43.58c12.11,0,23.06,4.69,31.33,12.28h1.7C80.06,43.78,65.7,35.92,49.45,35.92
		C22.15,35.92,0,58.07,0,85.37c0,24.73,18.19,45.24,41.91,48.88C23.18,128.25,9.62,110.7,9.62,90
		C9.62,64.37,30.38,43.58,56.05,43.58z" fill="#90C543" stroke-width="0"></path>
</g>
</svg>
                </g>
                <g id="shape_MLEWHAWoum" ref="shape_MLEWHAWoum" key="shape_MLEWHAWoum" transform="translate(125.34030230212,-66.54221607917003) rotate(0,312.15999999999997,394.48) scale(1,1)" style="[object Object]" filter="">
                  <!--普通元素-->
                  <svg xmlns="http://www.w3.org/2000/svg" version="1.1" xmlns:xlink="http://www.w3.org/1999/xlink" width="843.64" height="788.96" viewBox="0 0 843.64 788.96" data-parent="shape_MLEWHAWoum"><g data-width="403.54879999999997" transform="translate(110.38560000000001, 0)"><path d="M32.13-48.14L32.13-58.78L57.68-58.78L50.22-77.53L65.25-77.53L72.70-58.78L81.48-58.78L75.88-74.79L89.15-74.79L98.37-48.14L92.11-48.14L85.21-48.14L77.09-48.14L96.28-0.22L81.26-0.22L62.07-48.14L32.13-48.14ZM15.24-78.85L29.61-78.85L22.15-63.38L27.52-63.38L27.52-0.22L13.93-0.22L13.93-52.42L2.41-52.42L15.24-78.85Z" transform="translate(0 432.98) " fill="#022e77" stroke="#022e77" stroke-width="0.183" data-glyph-w="100.88719999999999" data-glyph-h="109.66" data-glyph-ascender="94.19793999999999" data-glyph-descender="-15.46206"></path><path d="M33.45 0.11L9.32 0.11L9.32-30.27L2.08-30.27L8.33-68.10L2.74-68.10L2.74-78.96L48.47-78.96L48.47-68.10L23.47-68.10L22.70-63.05L45.51-63.05L45.51-11.95Q45.51-9.43 44.52-7.24Q43.54-5.04 41.89-3.40Q40.25-1.75 38.05-0.82Q35.86 0.11 33.45 0.11L33.45 0.11ZM23.36-52.20L23.36-10.75L28.07-10.75Q29.50-10.75 30.49-11.73Q31.47-12.72 31.47-14.15L31.47-14.15L31.47-52.20L23.36-52.20ZM98.69-45.29L98.69-11.95Q98.69-9.43 97.76-7.24Q96.83-5.04 95.18-3.40Q93.54-1.75 91.35-0.82Q89.15 0.11 86.63 0.11L86.63 0.11L72.05 0.11L76.21-9.32L80.05-9.32Q81.48-9.32 82.46-10.31Q83.45-11.29 83.45-12.83L83.45-12.83L83.45-34.43L49.46-34.43L55.05-62.40L70.84-62.40L67.55-45.29L79.72-45.29L79.72-64.81Q79.72-66.23 78.74-67.22Q77.75-68.21 76.32-68.21L76.32-68.21L52.09-68.21L52.09-79.06L82.90-79.06Q85.43-79.06 87.62-78.13Q89.81-77.20 91.46-75.56Q93.10-73.91 94.03-71.72Q94.97-69.52 94.97-67.00L94.97-67.00L94.97-45.29L98.69-45.29ZM77.31-25.33L77.31-14.48L49.46-14.48L49.46-25.33L77.31-25.33Z" transform="translate(100.88719999999999 432.98) " fill="#022e77" stroke="#022e77" stroke-width="0.183" data-glyph-w="100.88719999999999" data-glyph-h="109.66" data-glyph-ascender="94.19793999999999" data-glyph-descender="-15.46206"></path><path d="M30.49-66.56L18.42-9.87L3.62-9.87L15.79-66.56L30.49-66.56ZM97.16-9.87L82.46-9.87L70.29-66.56L84.99-66.56L97.16-9.87ZM48.14-0.77L29.83-0.77L33.56-10.97L40.25-10.97Q41.23-10.97 41.94-11.68Q42.66-12.39 42.66-13.49L42.66-13.49L42.66-78.19L57.90-78.19L57.90-10.53Q57.90-6.47 55.05-3.62Q52.20-0.77 48.14-0.77L48.14-0.77Z" transform="translate(201.77439999999999 432.98) " fill="#022e77" stroke="#022e77" stroke-width="0.183" data-glyph-w="100.88719999999999" data-glyph-h="109.66" data-glyph-ascender="94.19793999999999" data-glyph-descender="-15.46206"></path><path d="M57.90-75.88L57.90-65.03L2.30-65.03L2.30-75.88L22.04-75.88L20.62-78.96L35.97-78.96L37.39-75.88L57.90-75.88ZM55.93-62.94L55.93-47.48Q55.93-43.97 53.35-41.45Q50.77-38.93 47.26-38.93L47.26-38.93L5.48-38.93L5.48-62.94L55.93-62.94ZM41.89-51.10L41.89-53.40L19.52-53.40L19.52-48.58L39.26-48.58Q40.35-48.58 41.12-49.29Q41.89-50.00 41.89-51.10L41.89-51.10ZM13.71-8.11L24.23-8.11Q25.66-8.11 26.65-9.10Q27.63-10.09 27.63-11.62L27.63-11.62L27.63-12.28L2.30-12.28L2.30-23.14L32.57-23.14L34.87-27.41L5.81-27.41L5.81-37.07L40.14-37.07L43.32-37.07L55.38-37.07L47.81-23.14L57.90-23.14L57.90-12.28L42.88-12.28L42.88-11.95Q42.88-9.43 41.94-7.24Q41.01-5.04 39.37-3.40Q37.72-1.75 35.53-0.82Q33.34 0.11 30.81 0.11L30.81 0.11L10.64 0.11L13.71-8.11ZM72.59-79.06L98.58-79.06L91.02-44.30L98.58-44.30L87.40-4.50L74.68-4.50L83.12-35.31L75.23-35.31L82.35-68.21L72.59-68.21L72.59 0.11L59.87 0.11L59.87-79.06L66.89-79.06L72.59-79.06Z" transform="translate(302.66159999999996 432.98) " fill="#022e77" stroke="#022e77" stroke-width="0.183" data-glyph-w="100.88719999999999" data-glyph-h="109.66" data-glyph-ascender="94.19793999999999" data-glyph-descender="-15.46206"></path></g></svg>
                </g>
                <g id="shape_otjKTv6ZZU" ref="shape_otjKTv6ZZU" key="shape_otjKTv6ZZU" transform="translate(219.8903348042451,290.45778392082997) rotate(0,165.16,102.98) scale(1,1)" style="[object Object]" filter="">
                  <!--普通元素-->
                  <svg xmlns="http://www.w3.org/2000/svg" version="1.1" xmlns:xlink="http://www.w3.org/1999/xlink" width="387.64000000000004" height="205.96" viewBox="0 0 387.64000000000004 205.96" data-parent="shape_otjKTv6ZZU"><g data-width="216.57332031250002" transform="translate(28.66, 0)"><path d="M17.84-8.05L11.81-8.05L11.81-10.45L20.50-10.47L20.50-2.85Q18.50-1.26 16.37-0.45Q14.25 0.35 12.01 0.35L12.01 0.35Q8.98 0.35 6.51-0.94Q4.04-2.24 2.78-4.69Q1.53-7.14 1.53-10.16L1.53-10.16Q1.53-13.15 2.78-15.75Q4.03-18.35 6.38-19.61Q8.73-20.87 11.80-20.87L11.80-20.87Q14.02-20.87 15.82-20.14Q17.62-19.42 18.64-18.14Q19.66-16.85 20.19-14.78L20.19-14.78L17.74-14.11Q17.28-15.67 16.60-16.57Q15.91-17.46 14.64-18.00Q13.36-18.54 11.81-18.54L11.81-18.54Q9.95-18.54 8.59-17.98Q7.23-17.41 6.40-16.49Q5.57-15.56 5.11-14.46L5.11-14.46Q4.32-12.55 4.32-10.33L4.32-10.33Q4.32-7.58 5.27-5.74Q6.21-3.89 8.02-2.99Q9.82-2.10 11.85-2.10L11.85-2.10Q13.62-2.10 15.30-2.78Q16.97-3.46 17.84-4.23L17.84-4.23L17.84-8.05Z" transform="translate(0 111.98) " fill="rgb(2, 46, 119)" stroke="rgb(2, 46, 119)" stroke-width="0.048" data-glyph-w="22.292666015625" data-glyph-h="32.01859375" data-glyph-ascender="25.94513671875" data-glyph-descender="-6.07345703125"></path><path d="M10.71 0L7.99 0L7.99-8.69L0.08-20.52L3.39-20.52L7.43-14.33Q8.55-12.59 9.52-10.86L9.52-10.86Q10.44-12.47 11.76-14.48L11.76-14.48L15.73-20.52L18.89-20.52L10.71-8.69L10.71 0Z" transform="translate(22.292666015625 111.98) " fill="rgb(2, 46, 119)" stroke="rgb(2, 46, 119)" stroke-width="0.048" data-glyph-w="19.11599609375" data-glyph-h="32.01859375" data-glyph-ascender="25.94513671875" data-glyph-descender="-6.07345703125"></path><path d="M9.61 0L2.21 0L2.21-20.52L9.28-20.52Q11.67-20.52 12.93-20.22L12.93-20.22Q14.69-19.82 15.94-18.75L15.94-18.75Q17.56-17.38 18.37-15.25Q19.17-13.11 19.17-10.37L19.17-10.37Q19.17-8.03 18.63-6.23Q18.08-4.42 17.23-3.24Q16.37-2.06 15.36-1.38Q14.34-0.70 12.91-0.35Q11.48 0 9.61 0L9.61 0ZM4.93-18.09L4.93-2.42L9.31-2.42Q11.34-2.42 12.49-2.80Q13.64-3.18 14.33-3.86L14.33-3.86Q15.30-4.83 15.83-6.46Q16.37-8.09 16.37-10.41L16.37-10.41Q16.37-13.63 15.32-15.36Q14.26-17.09 12.75-17.67L12.75-17.67Q11.66-18.09 9.24-18.09L9.24-18.09L4.93-18.09Z" transform="translate(41.408662109375 111.98) " fill="rgb(2, 46, 119)" stroke="rgb(2, 46, 119)" stroke-width="0.048" data-glyph-w="20.697333984375" data-glyph-h="32.01859375" data-glyph-ascender="25.94513671875" data-glyph-descender="-6.07345703125"></path><path d="M9.92 0L2.10 0L2.10-20.52L9.80-20.52Q12.15-20.52 13.57-19.89Q14.99-19.27 15.79-17.98Q16.60-16.68 16.60-15.27L16.60-15.27Q16.60-13.95 15.88-12.79Q15.17-11.63 13.73-10.92L13.73-10.92Q15.59-10.37 16.59-9.05Q17.59-7.74 17.59-5.95L17.59-5.95Q17.59-4.51 16.98-3.27Q16.37-2.03 15.48-1.36Q14.58-0.69 13.23-0.34Q11.88 0 9.92 0L9.92 0ZM4.81-18.09L4.81-11.90L9.25-11.90Q11.06-11.90 11.84-12.13L11.84-12.13Q12.87-12.44 13.40-13.15Q13.92-13.87 13.92-14.95L13.92-14.95Q13.92-15.97 13.43-16.74Q12.94-17.52 12.03-17.81Q11.13-18.09 8.91-18.09L8.91-18.09L4.81-18.09ZM4.81-9.47L4.81-2.42L9.92-2.42Q11.24-2.42 11.77-2.52L11.77-2.52Q12.71-2.69 13.34-3.08Q13.97-3.47 14.37-4.22Q14.78-4.97 14.78-5.95L14.78-5.95Q14.78-7.10 14.19-7.94Q13.60-8.79 12.56-9.13Q11.52-9.47 9.56-9.47L9.56-9.47L4.81-9.47Z" transform="translate(62.10599609375 111.98) " fill="rgb(2, 46, 119)" stroke="rgb(2, 46, 119)" stroke-width="0.048" data-glyph-w="19.11599609375" data-glyph-h="32.01859375" data-glyph-ascender="25.94513671875" data-glyph-descender="-6.07345703125"></path><path d="M14.92 0L2.10 0L2.10-20.52L4.81-20.52L4.81-2.42L14.92-2.42L14.92 0Z" transform="translate(81.2219921875 111.98) " fill="rgb(2, 46, 119)" stroke="rgb(2, 46, 119)" stroke-width="0.048" data-glyph-w="15.939326171875" data-glyph-h="32.01859375" data-glyph-ascender="25.94513671875" data-glyph-descender="-6.07345703125"></path><path d="M1.39-9.99L1.39-9.99Q1.39-15.10 4.13-17.99Q6.87-20.88 11.21-20.88L11.21-20.88Q14.05-20.88 16.33-19.52Q18.61-18.16 19.81-15.74Q21.01-13.31 21.01-10.23L21.01-10.23Q21.01-7.11 19.75-4.65Q18.49-2.18 16.18-0.92Q13.87 0.35 11.20 0.35L11.20 0.35Q8.30 0.35 6.02-1.05Q3.74-2.45 2.56-4.87Q1.39-7.29 1.39-9.99ZM4.18-9.95L4.18-9.95Q4.18-6.24 6.18-4.11Q8.17-1.97 11.18-1.97L11.18-1.97Q14.25-1.97 16.23-4.13Q18.21-6.28 18.21-10.24L18.21-10.24Q18.21-12.75 17.36-14.62Q16.51-16.49 14.88-17.51Q13.25-18.54 11.22-18.54L11.22-18.54Q8.34-18.54 6.26-16.56Q4.18-14.58 4.18-9.95Z" transform="translate(97.161318359375 111.98) " fill="rgb(2, 46, 119)" stroke="rgb(2, 46, 119)" stroke-width="0.048" data-glyph-w="22.292666015625" data-glyph-h="32.01859375" data-glyph-ascender="25.94513671875" data-glyph-descender="-6.07345703125"></path><path d="M17.84-8.05L11.81-8.05L11.81-10.45L20.50-10.47L20.50-2.85Q18.50-1.26 16.37-0.45Q14.25 0.35 12.01 0.35L12.01 0.35Q8.98 0.35 6.51-0.94Q4.04-2.24 2.78-4.69Q1.53-7.14 1.53-10.16L1.53-10.16Q1.53-13.15 2.78-15.75Q4.03-18.35 6.38-19.61Q8.73-20.87 11.80-20.87L11.80-20.87Q14.02-20.87 15.82-20.14Q17.62-19.42 18.64-18.14Q19.66-16.85 20.19-14.78L20.19-14.78L17.74-14.11Q17.28-15.67 16.60-16.57Q15.91-17.46 14.64-18.00Q13.36-18.54 11.81-18.54L11.81-18.54Q9.95-18.54 8.59-17.98Q7.23-17.41 6.40-16.49Q5.57-15.56 5.11-14.46L5.11-14.46Q4.32-12.55 4.32-10.33L4.32-10.33Q4.32-7.58 5.27-5.74Q6.21-3.89 8.02-2.99Q9.82-2.10 11.85-2.10L11.85-2.10Q13.62-2.10 15.30-2.78Q16.97-3.46 17.84-4.23L17.84-4.23L17.84-8.05Z" transform="translate(119.453984375 111.98) " fill="rgb(2, 46, 119)" stroke="rgb(2, 46, 119)" stroke-width="0.048" data-glyph-w="22.292666015625" data-glyph-h="32.01859375" data-glyph-ascender="25.94513671875" data-glyph-descender="-6.07345703125"></path><path d="M5.47 0L2.60 0L2.60-2.87L5.47-2.87L5.47 0Z" transform="translate(141.746650390625 111.98) " fill="rgb(2, 46, 119)" stroke="rgb(2, 46, 119)" stroke-width="0.048" data-glyph-w="7.962666015625" data-glyph-h="32.01859375" data-glyph-ascender="25.94513671875" data-glyph-descender="-6.07345703125"></path><path d="M16.85-7.19L16.85-7.19L19.56-6.51Q18.71-3.16 16.49-1.41Q14.27 0.35 11.07 0.35L11.07 0.35Q7.75 0.35 5.67-1.00Q3.60-2.35 2.51-4.91Q1.43-7.47 1.43-10.41L1.43-10.41Q1.43-13.62 2.65-16.00Q3.88-18.39 6.14-19.63Q8.40-20.87 11.11-20.87L11.11-20.87Q14.19-20.87 16.29-19.30Q18.39-17.73 19.21-14.89L19.21-14.89L16.54-14.26Q15.83-16.50 14.47-17.52Q13.11-18.54 11.06-18.54L11.06-18.54Q8.69-18.54 7.10-17.41Q5.51-16.28 4.87-14.36Q4.23-12.45 4.23-10.43L4.23-10.43Q4.23-7.81 4.99-5.86Q5.75-3.90 7.36-2.94Q8.97-1.97 10.85-1.97L10.85-1.97Q13.13-1.97 14.71-3.29Q16.29-4.60 16.85-7.19Z" transform="translate(149.70931640625 111.98) " fill="rgb(2, 46, 119)" stroke="rgb(2, 46, 119)" stroke-width="0.048" data-glyph-w="20.697333984375" data-glyph-h="32.01859375" data-glyph-ascender="25.94513671875" data-glyph-descender="-6.07345703125"></path><path d="M1.39-9.99L1.39-9.99Q1.39-15.10 4.13-17.99Q6.87-20.88 11.21-20.88L11.21-20.88Q14.05-20.88 16.33-19.52Q18.61-18.16 19.81-15.74Q21.01-13.31 21.01-10.23L21.01-10.23Q21.01-7.11 19.75-4.65Q18.49-2.18 16.18-0.92Q13.87 0.35 11.20 0.35L11.20 0.35Q8.30 0.35 6.02-1.05Q3.74-2.45 2.56-4.87Q1.39-7.29 1.39-9.99ZM4.18-9.95L4.18-9.95Q4.18-6.24 6.18-4.11Q8.17-1.97 11.18-1.97L11.18-1.97Q14.25-1.97 16.23-4.13Q18.21-6.28 18.21-10.24L18.21-10.24Q18.21-12.75 17.36-14.62Q16.51-16.49 14.88-17.51Q13.25-18.54 11.22-18.54L11.22-18.54Q8.34-18.54 6.26-16.56Q4.18-14.58 4.18-9.95Z" transform="translate(170.406650390625 111.98) " fill="rgb(2, 46, 119)" stroke="rgb(2, 46, 119)" stroke-width="0.048" data-glyph-w="22.292666015625" data-glyph-h="32.01859375" data-glyph-ascender="25.94513671875" data-glyph-descender="-6.07345703125"></path><path d="M4.74 0L2.13 0L2.13-20.52L6.21-20.52L11.07-5.99Q11.74-3.96 12.05-2.95L12.05-2.95Q12.40-4.07 13.14-6.24L13.14-6.24L18.05-20.52L21.70-20.52L21.70 0L19.09 0L19.09-17.17L13.13 0L10.68 0L4.74-17.46L4.74 0Z" transform="translate(192.69931640625 111.98) " fill="rgb(2, 46, 119)" stroke="rgb(2, 46, 119)" stroke-width="0.048" data-glyph-w="23.87400390625" data-glyph-h="32.01859375" data-glyph-ascender="25.94513671875" data-glyph-descender="-6.07345703125"></path></g></svg>
                </g>
      </svg>